<svg width="572" height="36" viewBox="0 0 572 36" fill="none" xmlns="http://www.w3.org/2000/svg">
<g clip-path="url(#clip0_165_5382)">
<path d="M0.68758 22.7242C3.5879 22.517 6.24989 22.4215 9.1539 22.3174C12.0579 22.2132 14.7162 22.0147 17.6165 21.8076C23.9011 21.3759 29.94 20.8498 36.2247 20.4181C48.0679 19.5807 60.1531 18.7347 72.0075 18.2064C82.8901 17.6098 94.0184 17.1075 104.908 16.717C107.812 16.6129 110.716 16.5087 113.378 16.4132C124.272 16.1257 135.162 15.7352 146.056 15.4477C171.477 14.8456 197.14 14.2347 222.569 13.8386C247.513 13.4599 272.458 13.0812 297.164 12.8141C309.275 12.6893 321.628 12.5558 333.739 12.431C347.068 12.4688 360.389 12.3006 373.471 12.2441C400.851 12.1907 427.984 12.0429 455.364 11.9896C479.109 11.9633 502.624 12.2549 526.15 12.8555C541.191 13.3477 556.477 13.9343 571.522 14.5296C554.358 15.661 536.942 16.4919 519.521 17.2198C508.147 17.6277 496.77 17.9325 485.634 18.2287C478.37 18.386 471.103 18.4403 463.594 18.5033C458.992 18.5652 454.628 18.5153 450.265 18.4655C438.389 18.3755 426.274 18.3973 414.397 18.3074C400.585 18.2869 387.011 18.1548 373.198 18.1343C359.144 18.1225 344.847 18.1193 330.793 18.1075C318.194 18.1467 305.353 18.1945 292.512 18.2424C280.155 18.2728 267.56 18.415 255.207 18.5485C242.612 18.6907 230.259 18.8242 217.664 18.9664C204.827 19.1173 192.239 19.4655 179.406 19.7194C156.159 20.1405 132.923 20.8706 109.445 21.6094C96.3774 22.078 83.544 22.3319 70.4686 22.5945C57.6352 22.8484 44.8019 23.1023 32.2068 23.2445C27.121 23.3237 21.7933 23.4116 16.7039 23.3878C14.2802 23.3715 11.6146 23.364 9.18716 23.2447C7.00173 23.1167 4.81266 22.8857 2.63098 22.8608C1.90125 22.7838 1.41355 22.6981 0.68758 22.7242Z" fill="#4361EE"/>
</g>
<defs>
<clipPath id="clip0_165_5382">
<rect width="570.761" height="15.3617" fill="white" transform="matrix(-0.999358 0.0358388 0.0358388 0.999358 571 0)"/>
</clipPath>
</defs>
</svg>
