<svg width="27" height="27" viewBox="0 0 27 27" fill="none" xmlns="http://www.w3.org/2000/svg">
<path d="M24.75 3.09375H2.25C1.78875 3.09375 1.40625 2.71125 1.40625 2.25C1.40625 1.78875 1.78875 1.40625 2.25 1.40625H24.75C25.2112 1.40625 25.5938 1.78875 25.5938 2.25C25.5938 2.71125 25.2112 3.09375 24.75 3.09375Z" fill="white"/>
<path d="M18.7543 25.1325C18.608 25.425 18.3043 25.5938 18.0005 25.5938C17.8768 25.5938 17.7418 25.56 17.6293 25.5038L13.5005 23.445L9.37178 25.5038C9.25928 25.56 9.12428 25.5938 9.00053 25.5938C8.69678 25.5938 8.39303 25.425 8.24678 25.1325C8.03303 24.705 8.20178 24.1987 8.62928 23.9962L12.6568 21.9825V19.125H14.3443V21.9825L18.3718 23.9962C18.7993 24.1987 18.968 24.705 18.7543 25.1325Z" fill="white"/>
<path d="M3.375 2.25V15.8625C3.375 18 4.5 19.125 6.6375 19.125H20.3625C22.5 19.125 23.625 18 23.625 15.8625V2.25H3.375ZM19.1025 9.6525L15.5587 12.6113C15.2325 12.8813 14.8162 12.9937 14.4225 12.9262C14.0175 12.8587 13.6688 12.6113 13.455 12.2513L12.2737 10.2825L8.9775 13.0275C8.82 13.1625 8.62875 13.2188 8.4375 13.2188C8.20125 13.2188 7.95375 13.1175 7.785 12.915C7.48125 12.555 7.5375 12.0263 7.8975 11.7225L11.4413 8.76375C11.7675 8.49375 12.1838 8.38125 12.5775 8.44875C12.9825 8.51625 13.3312 8.76375 13.545 9.12375L14.7263 11.0925L18.0225 8.3475C18.3825 8.04375 18.9112 8.1 19.215 8.46C19.5075 8.82 19.4625 9.34875 19.1025 9.6525Z" fill="white"/>
</svg>
