<svg width="27" height="27" viewBox="0 0 27 27" fill="none" xmlns="http://www.w3.org/2000/svg">
<path d="M21.0938 9V11.3625C20.5988 11.295 20.0363 11.2613 19.4062 11.25V9C19.4062 5.45625 18.405 3.09375 13.5 3.09375C8.595 3.09375 7.59375 5.45625 7.59375 9V11.25C6.96375 11.2613 6.40125 11.295 5.90625 11.3625V9C5.90625 5.7375 6.69375 1.40625 13.5 1.40625C20.3063 1.40625 21.0938 5.7375 21.0938 9Z" fill="white"/>
<path d="M21.0938 11.3625C20.5988 11.295 20.0363 11.2612 19.4062 11.25H7.59375C6.96375 11.2612 6.40125 11.295 5.90625 11.3625C3.0375 11.7113 2.25 13.1175 2.25 16.875V19.125C2.25 23.625 3.375 24.75 7.875 24.75H19.125C23.625 24.75 24.75 23.625 24.75 19.125V16.875C24.75 13.1175 23.9625 11.7113 21.0938 11.3625ZM9.79875 18.7987C9.585 19.0012 9.2925 19.125 9 19.125C8.85375 19.125 8.7075 19.0913 8.5725 19.035C8.42625 18.9788 8.31375 18.9 8.20125 18.7987C7.99875 18.585 7.875 18.2925 7.875 18C7.875 17.8538 7.90875 17.7075 7.965 17.5725C8.02125 17.4375 8.1 17.3137 8.20125 17.2012C8.31375 17.1 8.42625 17.0212 8.5725 16.965C8.98875 16.785 9.48375 16.8862 9.79875 17.2012C9.9 17.3137 9.97875 17.4375 10.035 17.5725C10.0913 17.7075 10.125 17.8538 10.125 18C10.125 18.2925 10.0013 18.585 9.79875 18.7987ZM14.535 18.4275C14.4788 18.5625 14.4 18.6862 14.2988 18.7987C14.085 19.0012 13.7925 19.125 13.5 19.125C13.1962 19.125 12.915 19.0012 12.7012 18.7987C12.6 18.6862 12.5212 18.5625 12.465 18.4275C12.4087 18.2925 12.375 18.1462 12.375 18C12.375 17.6962 12.4987 17.415 12.7012 17.2012C13.1175 16.785 13.8713 16.785 14.2988 17.2012C14.5013 17.415 14.625 17.6962 14.625 18C14.625 18.1462 14.5913 18.2925 14.535 18.4275ZM18.7987 18.7987C18.585 19.0012 18.2925 19.125 18 19.125C17.7075 19.125 17.415 19.0012 17.2012 18.7987C16.9987 18.585 16.875 18.3038 16.875 18C16.875 17.6962 16.9987 17.415 17.2012 17.2012C17.6287 16.785 18.3825 16.785 18.7987 17.2012C18.8437 17.2575 18.8887 17.3137 18.9337 17.3812C18.9787 17.4375 19.0125 17.505 19.035 17.5725C19.0688 17.64 19.0912 17.7075 19.1025 17.775C19.1137 17.8538 19.125 17.9325 19.125 18C19.125 18.2925 19.0012 18.585 18.7987 18.7987Z" fill="white"/>
</svg>
