<svg width="24" height="24" viewBox="0 0 24 24" fill="none" xmlns="http://www.w3.org/2000/svg">
<path fill-rule="evenodd" clip-rule="evenodd" d="M5.1508 5.16639C5.3756 4.94143 5.68047 4.81505 5.99834 4.81505C6.31622 4.81505 6.62108 4.94143 6.84589 5.16639L11.9923 10.318L17.1387 5.16639C17.2493 5.05178 17.3816 4.96036 17.5279 4.89747C17.6741 4.83458 17.8314 4.80148 17.9906 4.80009C18.1498 4.79871 18.3076 4.82907 18.455 4.88941C18.6023 4.94975 18.7361 5.03885 18.8487 5.15152C18.9612 5.26419 19.0503 5.39817 19.1105 5.54565C19.1708 5.69313 19.2011 5.85114 19.1998 6.01048C19.1984 6.16981 19.1653 6.32728 19.1025 6.47368C19.0397 6.62008 18.9483 6.7525 18.8338 6.86319L13.6874 12.0148L18.8338 17.1664C19.0522 17.3927 19.173 17.6958 19.1703 18.0105C19.1676 18.3251 19.0415 18.6261 18.8192 18.8486C18.597 19.0711 18.2963 19.1973 17.982 19.2C17.6676 19.2027 17.3648 19.0818 17.1387 18.8632L11.9923 13.7116L6.84589 18.8632C6.61979 19.0818 6.31698 19.2027 6.00266 19.2C5.68834 19.1973 5.38766 19.0711 5.1654 18.8486C4.94313 18.6261 4.81706 18.3251 4.81432 18.0105C4.81159 17.6958 4.93243 17.3927 5.1508 17.1664L10.2972 12.0148L5.1508 6.86319C4.92606 6.63816 4.7998 6.33299 4.7998 6.01479C4.7998 5.6966 4.92606 5.39143 5.1508 5.16639V5.16639Z" fill="#4361EE"/>
</svg>
