<svg width="20" height="20" viewBox="0 0 20 20" fill="none" xmlns="http://www.w3.org/2000/svg">
<path d="M13.3332 1.66666H6.6665C3.33317 1.66666 1.6665 3.33332 1.6665 6.66666V17.5C1.6665 17.9583 2.0415 18.3333 2.49984 18.3333H13.3332C16.6665 18.3333 18.3332 16.6667 18.3332 13.3333V6.66666C18.3332 3.33332 16.6665 1.66666 13.3332 1.66666ZM11.6665 12.7083H5.83317C5.4915 12.7083 5.20817 12.425 5.20817 12.0833C5.20817 11.7417 5.4915 11.4583 5.83317 11.4583H11.6665C12.0082 11.4583 12.2915 11.7417 12.2915 12.0833C12.2915 12.425 12.0082 12.7083 11.6665 12.7083ZM14.1665 8.54166H5.83317C5.4915 8.54166 5.20817 8.25832 5.20817 7.91666C5.20817 7.57499 5.4915 7.29166 5.83317 7.29166H14.1665C14.5082 7.29166 14.7915 7.57499 14.7915 7.91666C14.7915 8.25832 14.5082 8.54166 14.1665 8.54166Z" fill="white"/>
</svg>
