<svg width="21" height="20" viewBox="0 0 21 20" fill="none" xmlns="http://www.w3.org/2000/svg">
<path d="M13 3C11.0678 3 9.5 4.56784 9.5 6.5C9.5 8.43216 11.0678 10 13 10C14.9322 10 16.5 8.43216 16.5 6.5C16.5 4.56784 14.9322 3 13 3Z" fill="black"/>
<path d="M6.5 11C5.4009 11 4.5 11.8949 4.5 13C4.5 14.1051 5.39489 15 6.5 15C7.5991 15 8.5 14.1051 8.5 13C8.5 11.8949 7.5991 11 6.5 11Z" fill="black"/>
<path d="M13.5 13C12.3968 13 11.5 13.8968 11.5 15C11.5 16.1032 12.3968 17 13.5 17C14.6032 17 15.5 16.1032 15.5 15C15.5 13.8968 14.6032 13 13.5 13Z" fill="black"/>
</svg>
