<svg width="21" height="20" viewBox="0 0 21 20" fill="none" xmlns="http://www.w3.org/2000/svg">
<path d="M13.9915 1.66669H7.00817C3.97484 1.66669 2.1665 3.47502 2.1665 6.50835V13.4834C2.1665 16.525 3.97484 18.3334 7.00817 18.3334H13.9832C17.0165 18.3334 18.8248 16.525 18.8248 13.4917V6.50835C18.8332 3.47502 17.0248 1.66669 13.9915 1.66669ZM7.58317 5.31669C8.4415 5.31669 9.14984 6.01669 9.14984 6.88335C9.14984 7.75002 8.44984 8.45002 7.58317 8.45002C6.7165 8.45002 6.0165 7.73335 6.0165 6.87502C6.0165 6.01669 6.72484 5.31669 7.58317 5.31669ZM10.4998 15.9C8.25817 15.9 6.43317 14.075 6.43317 11.8334C6.43317 11.25 6.90817 10.7667 7.4915 10.7667H13.4915C14.0748 10.7667 14.5498 11.2417 14.5498 11.8334C14.5665 14.075 12.7415 15.9 10.4998 15.9ZM13.4165 8.43335C12.5582 8.43335 11.8498 7.73335 11.8498 6.86669C11.8498 6.00002 12.5498 5.30002 13.4165 5.30002C14.2832 5.30002 14.9832 6.00002 14.9832 6.86669C14.9832 7.73335 14.2748 8.43335 13.4165 8.43335Z" fill="black"/>
</svg>
