<svg width="21" height="20" viewBox="0 0 21 20" fill="none" xmlns="http://www.w3.org/2000/svg">
<path d="M13.8333 1.66666H7.16667C4.25 1.66666 3 3.33332 3 5.83332V14.1667C3 16.6667 4.25 18.3333 7.16667 18.3333H13.8333C16.75 18.3333 18 16.6667 18 14.1667V5.83332C18 3.33332 16.75 1.66666 13.8333 1.66666ZM7.16667 10.2083H10.5C10.8417 10.2083 11.125 10.4917 11.125 10.8333C11.125 11.175 10.8417 11.4583 10.5 11.4583H7.16667C6.825 11.4583 6.54167 11.175 6.54167 10.8333C6.54167 10.4917 6.825 10.2083 7.16667 10.2083ZM13.8333 14.7917H7.16667C6.825 14.7917 6.54167 14.5083 6.54167 14.1667C6.54167 13.825 6.825 13.5417 7.16667 13.5417H13.8333C14.175 13.5417 14.4583 13.825 14.4583 14.1667C14.4583 14.5083 14.175 14.7917 13.8333 14.7917ZM15.9167 7.70832H14.25C12.9833 7.70832 11.9583 6.68332 11.9583 5.41666V3.74999C11.9583 3.40832 12.2417 3.12499 12.5833 3.12499C12.925 3.12499 13.2083 3.40832 13.2083 3.74999V5.41666C13.2083 5.99166 13.675 6.45832 14.25 6.45832H15.9167C16.2583 6.45832 16.5417 6.74166 16.5417 7.08332C16.5417 7.42499 16.2583 7.70832 15.9167 7.70832Z" fill="black"/>
</svg>
