<svg width="21" height="20" viewBox="0 0 21 20" fill="none" xmlns="http://www.w3.org/2000/svg">
<path d="M16.4252 4.13334C13.1669 0.875007 7.87522 0.875007 4.61688 4.13334C1.30022 7.45001 1.35855 12.8583 4.78355 16.1083C7.95022 19.1 13.0835 19.1 16.2502 16.1083C19.6835 12.8583 19.7419 7.45001 16.4252 4.13334ZM14.1502 13.875C13.1502 14.825 11.8335 15.3 10.5169 15.3C9.20022 15.3 7.88355 14.825 6.88355 13.875C6.63355 13.6333 6.62522 13.2417 6.85855 12.9917C7.10022 12.7417 7.49188 12.7333 7.74188 12.9667C9.26688 14.4083 11.7585 14.4167 13.2919 12.9667C13.5419 12.7333 13.9419 12.7417 14.1752 12.9917C14.4169 13.2417 14.4002 13.6333 14.1502 13.875Z" fill="black"/>
</svg>
