<svg width="21" height="20" viewBox="0 0 21 20" fill="none" xmlns="http://www.w3.org/2000/svg">
<path d="M9.94444 14.5166H8.27778C7.46296 14.5166 6.7963 15.1126 6.7963 15.8411V16.0066H6.05556C5.75185 16.0066 5.5 16.2318 5.5 16.5033C5.5 16.7748 5.75185 17 6.05556 17H14.9444C15.2481 17 15.5 16.7748 15.5 16.5033C15.5 16.2318 15.2481 16.0066 14.9444 16.0066H14.2037V15.8411C14.2037 15.1126 13.537 14.5166 12.7222 14.5166H11.0556V13C10.8704 13.0199 10.6852 13.0265 10.5 13.0265C10.3148 13.0265 10.1296 13.0199 9.94444 13V14.5166Z" fill="black"/>
<path d="M15.1667 9.88571C15.642 9.70714 16.0597 9.41429 16.3909 9.08571C17.0607 8.35 17.5 7.47143 17.5 6.44286C17.5 5.41429 16.6862 4.60714 15.6492 4.60714H15.2459C14.7778 3.65714 13.7984 3 12.6605 3H8.33951C7.20165 3 6.22222 3.65714 5.75412 4.60714H5.35082C4.31379 4.60714 3.5 5.41429 3.5 6.44286C3.5 7.47143 3.9393 8.35 4.60905 9.08571C4.94033 9.41429 5.35802 9.70714 5.83333 9.88571C6.5823 11.7143 8.38272 13 10.5 13C12.6173 13 14.4177 11.7143 15.1667 9.88571ZM12.5453 7.60714L12.0988 8.15C12.0267 8.22857 11.9763 8.38571 11.9835 8.49286L12.0267 9.19286C12.0556 9.62143 11.7459 9.84286 11.3426 9.68571L10.6872 9.42857C10.5864 9.39286 10.4136 9.39286 10.3128 9.42857L9.65741 9.68571C9.25412 9.84286 8.94445 9.62143 8.97325 9.19286L9.01646 8.49286C9.02366 8.38571 8.97325 8.22857 8.90124 8.15L8.45473 7.60714C8.17387 7.27857 8.2963 6.91429 8.71399 6.80714L9.39815 6.63571C9.50617 6.60714 9.6358 6.50714 9.69342 6.41429L10.0751 5.82857C10.3128 5.46429 10.6872 5.46429 10.9249 5.82857L11.3066 6.41429C11.3642 6.50714 11.4938 6.60714 11.6019 6.63571L12.286 6.80714C12.7037 6.91429 12.8261 7.27857 12.5453 7.60714Z" fill="black"/>
</svg>
