<svg width="20" height="20" viewBox="0 0 20 20" fill="none" xmlns="http://www.w3.org/2000/svg">
<path d="M13.4915 1.66666H6.50817C3.47484 1.66666 1.6665 3.47499 1.6665 6.50832V13.4833C1.6665 16.525 3.47484 18.3333 6.50817 18.3333H13.4832C16.5165 18.3333 18.3248 16.525 18.3248 13.4917V6.50832C18.3332 3.47499 16.5248 1.66666 13.4915 1.66666ZM14.3832 8.29999L12.4582 10.7833C12.2165 11.0917 11.8748 11.2917 11.4832 11.3333C11.0915 11.3833 10.7082 11.275 10.3998 11.0333L8.87484 9.83332C8.8165 9.78332 8.74984 9.78332 8.7165 9.79166C8.68317 9.79166 8.62484 9.80832 8.57484 9.87499L6.5915 12.45C6.4665 12.6083 6.28317 12.6917 6.09984 12.6917C5.9665 12.6917 5.83317 12.65 5.7165 12.5583C5.4415 12.35 5.3915 11.9583 5.59984 11.6833L7.58317 9.10832C7.82484 8.79999 8.1665 8.59999 8.55817 8.54999C8.9415 8.49999 9.33317 8.60832 9.6415 8.84999L11.1665 10.05C11.2248 10.1 11.2832 10.1 11.3248 10.0917C11.3582 10.0917 11.4165 10.075 11.4665 10.0083L13.3915 7.52499C13.5998 7.24999 13.9998 7.19999 14.2665 7.41666C14.5415 7.64166 14.5915 8.03332 14.3832 8.29999Z" fill="white"/>
</svg>
