<svg width="20" height="20" viewBox="0 0 20 20" fill="none" xmlns="http://www.w3.org/2000/svg">
<path d="M12.4998 18.9583C12.2748 18.9583 12.0665 18.8333 11.9582 18.6416C11.8498 18.4416 11.8498 18.2083 11.9665 18.0083L12.8415 16.55C13.0165 16.25 13.4082 16.1583 13.6998 16.3333C13.9998 16.5083 14.0915 16.8916 13.9165 17.1916L13.6915 17.5666C15.9915 17.025 17.7165 14.9583 17.7165 12.4916C17.7165 12.15 17.9998 11.8666 18.3415 11.8666C18.6832 11.8666 18.9665 12.15 18.9665 12.4916C18.9582 16.0583 16.0582 18.9583 12.4998 18.9583Z" fill="black"/>
<path d="M1.6665 8.12502C1.32484 8.12502 1.0415 7.84169 1.0415 7.50002C1.0415 3.94169 3.9415 1.04169 7.49984 1.04169C7.72484 1.04169 7.93317 1.16669 8.0415 1.35835C8.14984 1.55835 8.14984 1.79169 8.03317 1.99169L7.15817 3.45002C6.98317 3.74169 6.59984 3.84169 6.29984 3.65835C6.00817 3.48335 5.90817 3.10002 6.0915 2.80002L6.3165 2.42502C4.00817 2.96669 2.2915 5.03335 2.2915 7.50002C2.2915 7.84169 2.00817 8.12502 1.6665 8.12502Z" fill="black"/>
<path d="M12.3332 10.525V12.975C12.3332 15.0167 11.5165 15.8334 9.47484 15.8334H7.02484C4.98317 15.8334 4.1665 15.0167 4.1665 12.975V10.525C4.1665 8.48335 4.98317 7.66669 7.02484 7.66669H9.47484C11.5165 7.66669 12.3332 8.48335 12.3332 10.525Z" fill="black"/>
<path d="M12.9748 4.16669H10.5248C8.51647 4.16669 7.6998 4.96669 7.6748 6.93335H9.4748C11.9248 6.93335 13.0581 8.07502 13.0581 10.5167V12.3167C15.0331 12.2917 15.8248 11.475 15.8248 9.46669V7.02502C15.8331 4.98335 15.0165 4.16669 12.9748 4.16669Z" fill="black"/>
</svg>
