<svg width="21" height="20" viewBox="0 0 21 20" fill="none" xmlns="http://www.w3.org/2000/svg">
<path d="M18.8332 8.12502C18.4915 8.12502 18.2082 7.84169 18.2082 7.50002V5.83335C18.2082 3.68335 16.8165 2.29169 14.6665 2.29169H6.33317C4.18317 2.29169 2.7915 3.68335 2.7915 5.83335V7.50002C2.7915 7.84169 2.50817 8.12502 2.1665 8.12502C1.82484 8.12502 1.5415 7.84169 1.5415 7.50002V5.83335C1.5415 2.96669 3.4665 1.04169 6.33317 1.04169H14.6665C17.5332 1.04169 19.4582 2.96669 19.4582 5.83335V7.50002C19.4582 7.84169 19.1748 8.12502 18.8332 8.12502Z" fill="black"/>
<path d="M14.6665 18.9583H6.33317C3.4665 18.9583 1.5415 17.0333 1.5415 14.1667V12.5C1.5415 12.1583 1.82484 11.875 2.1665 11.875C2.50817 11.875 2.7915 12.1583 2.7915 12.5V14.1667C2.7915 16.3167 4.18317 17.7083 6.33317 17.7083H14.6665C16.8165 17.7083 18.2082 16.3167 18.2082 14.1667V12.5C18.2082 12.1583 18.4915 11.875 18.8332 11.875C19.1748 11.875 19.4582 12.1583 19.4582 12.5V14.1667C19.4582 17.0333 17.5332 18.9583 14.6665 18.9583Z" fill="black"/>
<path d="M18.8332 10.625H2.1665C1.82484 10.625 1.5415 10.3417 1.5415 10C1.5415 9.65833 1.82484 9.375 2.1665 9.375H18.8332C19.1748 9.375 19.4582 9.65833 19.4582 10C19.4582 10.3417 19.1748 10.625 18.8332 10.625Z" fill="black"/>
<path d="M14.2502 7.50002H6.75016C6.51683 7.50002 6.3335 7.31669 6.3335 7.08335V5.41669C6.3335 4.72502 6.89183 4.16669 7.5835 4.16669H13.4168C14.1085 4.16669 14.6668 4.72502 14.6668 5.41669V7.08335C14.6668 7.31669 14.4835 7.50002 14.2502 7.50002Z" fill="black"/>
<path d="M14.2502 12.5H6.75016C6.51683 12.5 6.3335 12.6833 6.3335 12.9167V14.5833C6.3335 15.275 6.89183 15.8333 7.5835 15.8333H13.4168C14.1002 15.8333 14.6668 15.275 14.6668 14.5833V12.9167C14.6668 12.6833 14.4835 12.5 14.2502 12.5Z" fill="black"/>
</svg>
