<svg width="21" height="20" viewBox="0 0 21 20" fill="none" xmlns="http://www.w3.org/2000/svg">
<path d="M10.4998 1.66669C5.89984 1.66669 2.1665 5.40002 2.1665 10C2.1665 14.6 5.89984 18.3334 10.4998 18.3334C15.0998 18.3334 18.8332 14.6 18.8332 10C18.8332 5.40002 15.0998 1.66669 10.4998 1.66669ZM6.20817 7.86669C6.55817 7.05835 7.2165 6.43335 8.12484 6.15002V5.48335C8.12484 5.14169 8.40817 4.85835 8.74984 4.85835C9.0915 4.85835 9.37484 5.14169 9.37484 5.48335V5.97502H11.6332V5.48335C11.6332 5.14169 11.9165 4.85835 12.2582 4.85835C12.5998 4.85835 12.8832 5.14169 12.8832 5.48335V6.14169C13.7915 6.42502 14.4498 7.05002 14.7998 7.85835C14.9165 8.13335 14.7165 8.45002 14.4165 8.45002H6.5915C6.2915 8.45002 6.0915 8.14169 6.20817 7.86669ZM15.0832 11.8084C15.0832 13.6417 13.8332 15.1417 11.7498 15.1417H9.24984C7.1665 15.1417 5.9165 13.6417 5.9165 11.8084V9.70002C5.9165 9.46669 6.09984 9.28335 6.33317 9.28335H14.6665C14.8998 9.28335 15.0832 9.46669 15.0832 9.70002V11.8084Z" fill="black"/>
</svg>
