<svg width="20" height="20" viewBox="0 0 20 20" fill="none" xmlns="http://www.w3.org/2000/svg">
<path d="M2.30817 8.33332C1.94984 8.33332 1.6665 8.04999 1.6665 7.69166V5.76666C1.6665 3.50832 3.50817 1.66666 5.7665 1.66666H7.6915C8.04984 1.66666 8.33317 1.94999 8.33317 2.30832C8.33317 2.66666 8.04984 2.94999 7.6915 2.94999H5.7665C4.20817 2.94999 2.94984 4.21666 2.94984 5.76666V7.69166C2.94984 8.04999 2.65817 8.33332 2.30817 8.33332Z" fill="white"/>
<path d="M17.6915 8.33332C17.3415 8.33332 17.0498 8.04999 17.0498 7.69166V5.76666C17.0498 4.20832 15.7832 2.94999 14.2332 2.94999H12.3082C11.9498 2.94999 11.6665 2.65832 11.6665 2.30832C11.6665 1.95832 11.9498 1.66666 12.3082 1.66666H14.2332C16.4915 1.66666 18.3332 3.50832 18.3332 5.76666V7.69166C18.3332 8.04999 18.0498 8.33332 17.6915 8.33332Z" fill="white"/>
<path d="M14.2331 18.3333H13.0748C12.7248 18.3333 12.4331 18.05 12.4331 17.6917C12.4331 17.3417 12.7164 17.05 13.0748 17.05H14.2331C15.7914 17.05 17.0498 15.7833 17.0498 14.2333V13.0833C17.0498 12.7333 17.3331 12.4417 17.6914 12.4417C18.0414 12.4417 18.3331 12.725 18.3331 13.0833V14.2333C18.3331 16.4917 16.4914 18.3333 14.2331 18.3333Z" fill="white"/>
<path d="M7.6915 18.3333H5.7665C3.50817 18.3333 1.6665 16.4917 1.6665 14.2333V12.3083C1.6665 11.95 1.94984 11.6667 2.30817 11.6667C2.6665 11.6667 2.94984 11.95 2.94984 12.3083V14.2333C2.94984 15.7917 4.2165 17.05 5.7665 17.05H7.6915C8.0415 17.05 8.33317 17.3333 8.33317 17.6917C8.33317 18.05 8.04984 18.3333 7.6915 18.3333Z" fill="white"/>
<path d="M15.3834 9.35834H14.2501H5.7501H4.61676C4.25843 9.35834 3.9751 9.65 3.9751 10C3.9751 10.35 4.25843 10.6417 4.61676 10.6417H5.7501H14.2501H15.3834C15.7418 10.6417 16.0251 10.35 16.0251 10C16.0251 9.65 15.7418 9.35834 15.3834 9.35834Z" fill="white"/>
<path d="M5.75 11.6167V11.8917C5.75 13.275 6.86667 14.3917 8.25 14.3917H11.75C13.1333 14.3917 14.25 13.275 14.25 11.8917V11.6167C14.25 11.5167 14.175 11.4417 14.075 11.4417H5.925C5.825 11.4417 5.75 11.5167 5.75 11.6167Z" fill="white"/>
<path d="M5.75 8.38334V8.10834C5.75 6.725 6.86667 5.60834 8.25 5.60834H11.75C13.1333 5.60834 14.25 6.725 14.25 8.10834V8.38334C14.25 8.48334 14.175 8.55834 14.075 8.55834H5.925C5.825 8.55834 5.75 8.48334 5.75 8.38334Z" fill="white"/>
</svg>
