<svg width="18" height="19" viewBox="0 0 18 19" fill="none" xmlns="http://www.w3.org/2000/svg">
<path d="M11.3335 10.3334C11.3335 13.0949 9.09503 15.3334 6.3335 15.3334C3.57196 15.3334 1.3335 13.0949 1.3335 10.3334C1.3335 7.57184 3.57196 5.33337 6.3335 5.33337C6.46427 5.33337 6.60273 5.34107 6.7335 5.34876C9.17196 5.54107 11.1258 7.49491 11.3181 9.93337C11.3258 10.0641 11.3335 10.2026 11.3335 10.3334Z" fill="white"/>
<path d="M16.6665 5.03108C16.6665 7.5543 14.8089 9.63634 12.3941 10.0001V9.95368C12.1541 6.95059 9.71604 4.51251 6.68972 4.27257H6.6665C7.03028 1.85771 9.11232 0.00012207 11.6355 0.00012207C14.4142 0.00012207 16.6665 2.25244 16.6665 5.03108Z" fill="white"/>
<path d="M3.94086 0.00012207H2.05978C1.66032 0.00012207 1.3335 0.326634 1.3335 0.725704V2.60496C1.3335 3.25073 2.11788 3.57724 2.57544 3.12013L4.45652 1.24087C4.90681 0.783751 4.58725 0.00012207 3.94086 0.00012207Z" fill="white"/>
<path d="M13.1881 15.6333H14.7118C15.0354 15.6333 15.3001 15.3689 15.3001 15.0456V13.5234C15.3001 13.0004 14.6647 12.7359 14.2941 13.1061L12.7704 14.6283C12.4057 14.9986 12.6646 15.6333 13.1881 15.6333Z" fill="white"/>
</svg>
